<svg width="16" height="16" viewBox="0 0 16 16" fill="none" xmlns="http://www.w3.org/2000/svg">
<path fill-rule="evenodd" clip-rule="evenodd" d="M0.270133 3.46792C0.200438 3.53757 0.145151 3.62027 0.10743 3.7113C0.0697084 3.80232 0.050293 3.89989 0.050293 3.99842C0.050293 4.09695 0.0697084 4.19452 0.10743 4.28554C0.145151 4.37657 0.200438 4.45927 0.270133 4.52892L3.47013 7.72892C3.53928 7.80058 3.62202 7.85776 3.7135 7.89711C3.80498 7.93646 3.90339 7.95719 4.00297 7.9581C4.10256 7.95902 4.20132 7.94009 4.29351 7.90242C4.3857 7.86475 4.46947 7.8091 4.53992 7.73872C4.61037 7.66833 4.6661 7.58462 4.70386 7.49246C4.74161 7.40031 4.76063 7.30156 4.75982 7.20197C4.759 7.10239 4.73836 7.00397 4.69909 6.91245C4.65983 6.82092 4.60273 6.73814 4.53113 6.66892L2.61113 4.74892H12.0011C12.2 4.74892 12.3908 4.6699 12.5315 4.52925C12.6721 4.3886 12.7511 4.19783 12.7511 3.99892C12.7511 3.80001 12.6721 3.60924 12.5315 3.46859C12.3908 3.32794 12.2 3.24892 12.0011 3.24892H2.61013L4.53013 1.32892C4.66261 1.18674 4.73474 0.998698 4.73131 0.804397C4.72788 0.610096 4.64917 0.42471 4.51175 0.287297C4.37434 0.149884 4.18896 0.071172 3.99466 0.0677438C3.80035 0.0643156 3.61231 0.136439 3.47013 0.268919L0.270133 3.46792ZM12.5301 8.26792L15.7301 11.4679C15.7998 11.5376 15.8551 11.6203 15.8928 11.7113C15.9306 11.8023 15.95 11.8999 15.95 11.9984C15.95 12.097 15.9306 12.1945 15.8928 12.2855C15.8551 12.3766 15.7998 12.4593 15.7301 12.5289L12.5301 15.7289C12.461 15.8006 12.3783 15.8578 12.2868 15.8971C12.1953 15.9365 12.0969 15.9572 11.9973 15.9581C11.8977 15.959 11.7989 15.9401 11.7068 15.9024C11.6146 15.8648 11.5308 15.8091 11.4603 15.7387C11.3899 15.6683 11.3342 15.5846 11.2964 15.4925C11.2587 15.4003 11.2396 15.3016 11.2404 15.202C11.2413 15.1024 11.2619 15.004 11.3012 14.9124C11.3404 14.8209 11.3975 14.7381 11.4691 14.6689L13.3891 12.7489H3.99913C3.80022 12.7489 3.60946 12.6699 3.4688 12.5292C3.32815 12.3886 3.24913 12.1978 3.24913 11.9989C3.24913 11.8 3.32815 11.6092 3.4688 11.4686C3.60946 11.3279 3.80022 11.2489 3.99913 11.2489H13.3891L11.4691 9.32892C11.3367 9.18674 11.2645 8.9987 11.268 8.8044C11.2714 8.6101 11.3501 8.42471 11.4875 8.2873C11.6249 8.14988 11.8103 8.07117 12.0046 8.06774C12.1989 8.06432 12.387 8.13644 12.5291 8.26892L12.5301 8.26792Z" fill="#74767A"/>
</svg>